<?xml version="1.0" standalone="yes"?>
<svg xmlns="http://www.w3.org/2000/svg" width="512" height="512">
<path style="fill: #f1f2f6; stroke:none;" d="M0 0L0 358L1 358C9.6226 320.746 58.7831 308.094 83.3812 338.004C100.784 359.165 95 391.463 95 417L417 417C417 391.471 411.225 359.186 428.619 338.004C453.222 308.043 502.376 320.742 511 358L512 358L512 0L266 0L266 1C288.626 4.39151 301.813 25.8931 303.83 47C305.645 65.9948 304 85.9149 304 105L304 220C316.285 211.347 324.204 200.925 340 198.439C371.539 193.475 399.13 222.913 393.535 254C388.922 279.633 359.468 299.532 342 317L301 358C289.356 369.644 279.025 380.881 262 383.561C240.022 387.02 225.208 372.208 211 358L145 292C133.173 280.173 119.406 268.936 118.09 251C115.747 219.054 143.519 191.588 176 199.236C189.724 202.468 197.064 212.297 208 220L208 105C208 85.9149 206.355 65.9948 208.17 47C210.184 25.9164 223.426 4.38379 246 1L223 0L173 0L0 0z"/>
<path style="fill:#81ff81; stroke:none;" d="M246 0L247 1L246 0z"/>
<path style="fill:#2bcc56; stroke:none;" d="M208 220C197.871 209.872 187.643 200.745 173 198.439C140.07 193.254 114.746 221.102 118.174 253C121.04 279.676 153.346 301.346 171 319L209 357C221.557 369.557 232.569 381.316 251 383.711C273.675 386.657 288.32 371.68 303 357L367 293C378.953 281.047 393.133 269.236 393.961 251C395.482 217.491 368.243 190.673 334 199.478C321.641 202.656 312.776 211.225 304 220L304 73C304 50.8896 306.024 26.0929 286.996 10.4676C261.419 -10.5352 220.022 0.841003 210.44 33C204.58 52.6644 208 76.6779 208 97L208 220z"/>
<path style="fill:#81ff81; stroke:none;" d="M239 2L240 3L239 2M229 7L230 8L229 7M224 11L225 12L224 11M221 14L222 15L221 14z"/>
<path style="fill:#01ff01; stroke:none;" d="M213 25L214 26L213 25M299 27L300 28L299 27z"/>
<path style="fill:#81ff81; stroke:none;" d="M208 44L209 45L208 44z"/>
<path style="fill:#01ff01; stroke:none;" d="M303 44L304 45L303 44z"/>
<path style="fill:#81ff81; stroke:none;" d="M152 199L153 200L152 199M149 200L150 201L149 200M146 201L147 202L146 201M183 201L184 202L183 201M142 203L143 204L142 203z"/>
<path style="fill:#01ff01; stroke:none;" d="M137 206L138 207L137 206M374 206L375 207L374 206z"/>
<path style="fill:#81ff81; stroke:none;" d="M196 209L197 210L196 209z"/>
<path style="fill:#01ff01; stroke:none;" d="M315 209L316 210L315 209M131 211L132 212L131 211M380 211L381 212L380 211z"/>
<path style="fill:#81ff81; stroke:none;" d="M127 216L128 217L127 216M126 217L127 218L126 217M124 220L125 221L124 220z"/>
<path style="fill:#01ff01; stroke:none;" d="M119 231L120 232L119 231M392 231L393 232L392 231M118 235L119 236L118 235M124 270L125 271L124 270M387 270L388 271L387 270M126 273L127 274L126 273M385 273L386 274L385 273z"/>
<path style="fill:#01c3ca; stroke:none;" d="M417 417L95 417C95 399.672 96.8268 381.197 94.7137 364C89.6495 322.786 39.2705 306.455 11.0934 337.001C0.68323 348.286 0 361.526 0 376L0 450C0 467.222 -0.845491 483.106 11.3009 496.985C25.4164 513.115 44.5756 512 64 512L172 512L408 512C435.774 512 477.324 520.335 498.829 498.829C520.193 477.466 512 436.582 512 409C512 388.937 516.461 363.223 506.676 345C490.146 314.215 442.135 312.645 424.348 343C411.996 364.08 417 393.496 417 417z"/>
<path style="fill:#81ff81; stroke:none;" d="M227 374L228 375L227 374M230 376L231 377L230 376M244 382L245 383L244 382z"/>
<path style="fill: #f1f2f6; stroke:none;" d="M249 383L250 384L249 383M262 383L263 384L262 383z"/>
<path style="fill: #f1f2f6; stroke:none;" d="M0 475L0 512L37 512L37 511C16.1988 507.882 8.79843 491.163 0 475M511 475C508.431 492.14 492.141 508.431 475 511L475 512L512 512C512 501.351 515.111 484.798 511 475z"/>
</svg>
