<?xml version="1.0" standalone="yes"?>
<svg xmlns="http://www.w3.org/2000/svg" width="512" height="512">
<path style="fill: #f1f2f6; stroke:none;" d="M0 0L0 330L1 330C3.05177 316.311 13.7299 307.27 23 298L71 250L254 67L299 22C307.984 13.0162 316.764 2.9841 330 1L300 0L233 0L0 0z"/>
<path style="fill:#73bffb; stroke:none;" d="M160 160C171.951 176.966 190.32 191.32 205 206C236.515 237.515 268.487 268.487 300 300L336 336C339.832 339.832 345.58 348.303 351 349.654C355.416 350.755 360.324 343.676 363 341L394 310L478 226C496.072 207.928 513.203 194.364 511.961 167C510.968 145.135 490.166 130.166 476 116L388 28C370.492 10.4921 351.854 -7.04858 325 1.74924C303.661 8.74023 286.443 33.5567 271 49L160 160z"/>
<path style="fill: #f1f2f6; stroke:none;" d="M349 0L349 1C367.607 3.74799 380.504 21.5039 393 34L478 119C490.496 131.496 508.252 144.393 511 163L512 163L512 0L349 0z"/>
<path style="fill:#ff8fb9; stroke:none;" d="M140 499C127.533 481.302 108.315 466.315 93 451C89.697 447.697 77.832 439.235 79.2068 434C80.2882 429.882 86.1 425.9 89 423L116 396L213 299L245 267C247.946 264.054 255.562 258.864 253.248 254C249.397 245.905 238.315 238.315 232 232L183 183C178.323 178.323 166.898 162.207 160 162.207C155.899 162.207 151.617 168.383 149 171L121 199L32 288C19.3766 300.623 1.50872 313.666 0.0902778 333C-1.92757 360.504 14.8844 374.884 33 393L103 463C114.823 474.823 126.33 489.37 140 499z"/>
<path style="fill: #f1f2f6; stroke:none;" d="M511 182C508.882 196.129 497.55 205.45 488 215L435 268L292 411C269.388 433.612 240.397 455.883 222 482L451 482L451 512L512 512L512 279L512 212L511 182z"/>
<path style="fill:#ff5f97; stroke:none;" d="M255 256L169 342L103 408C96.7066 414.293 80.5171 425.29 78.3457 434C76.7414 440.435 94.7379 453.738 99 458C119.191 478.191 142.813 514.945 175 511.83C195.527 509.844 205.522 496.056 220 483.285C251.897 455.152 280.922 423.078 311 393L340 364C342.803 361.197 349.793 356.374 349.793 352C349.793 344.681 332.003 332.003 327 327C304.07 304.07 281.483 274.655 255 256z"/>
<path style="fill:#ff8fb9; stroke:none;" d="M256 256L257 257L256 256M257 257L258 258L257 257M258 258L259 259L258 258M259 259L260 260L259 259M260 260L261 261L260 260M261 261L262 262L261 261M262 262L263 263L262 262M263 263L264 264L263 263M264 264L265 265L264 264M265 265L266 266L265 265M266 266L267 267L266 266M267 267L268 268L267 267M268 268L269 269L268 268M269 269L270 270L269 269M270 270L271 271L270 270M271 271L272 272L271 271M272 272L273 273L272 272M273 273L274 274L273 273M274 274L275 275L274 274M275 275L276 276L275 275M276 276L277 277L276 276M277 277L278 278L277 277M278 278L279 279L278 278M279 279L280 280L279 279M280 280L281 281L280 280M281 281L282 282L281 281M282 282L283 283L282 282M283 283L284 284L283 283M284 284L285 285L284 284M285 285L286 286L285 285M286 286L287 287L286 286M287 287L288 288L287 287M288 288L289 289L288 288M289 289L290 290L289 289M290 290L291 291L290 290M291 291L292 292L291 291M292 292L293 293L292 292M293 293L294 294L293 293M294 294L295 295L294 294M295 295L296 296L295 295M296 296L297 297L296 296M297 297L298 298L297 297M298 298L299 299L298 298M299 299L300 300L299 299M300 300L301 301L300 300M301 301L302 302L301 301M302 302L303 303L302 302M303 303L304 304L303 303M304 304L305 305L304 304M305 305L306 306L305 305M306 306L307 307L306 306M307 307L308 308L307 307M308 308L309 309L308 308M309 309L310 310L309 309M310 310L311 311L310 310M311 311L312 312L311 311M312 312L313 313L312 312M313 313L314 314L313 313M314 314L315 315L314 314M315 315L316 316L315 315M316 316L317 317L316 316M317 317L318 318L317 317M318 318L319 319L318 318M319 319L320 320L319 319M320 320L321 321L320 320M321 321L322 322L321 321M322 322L323 323L322 322M323 323L324 324L323 323M324 324L325 325L324 324M325 325L326 326L325 325M326 326L327 327L326 326M327 327L328 328L327 327M328 328L329 329L328 328M329 329L330 330L329 329M330 330L331 331L330 330M331 331L332 332L331 331M332 332L333 333L332 332M333 333L334 334L333 333M334 334L335 335L334 334M335 335L336 336L335 335M336 336L337 337L336 336M337 337L338 338L337 337M338 338L339 339L338 338M339 339L340 340L339 339M340 340L341 341L340 340M341 341L342 342L341 341M342 342L343 343L342 342M343 343L344 344L343 343M344 344L345 345L344 344M345 345L346 346L345 345M346 346L347 347L346 346M347 347L348 348L347 347M348 348L349 349L348 348z"/>
<path style="fill: #f1f2f6; stroke:none;" d="M0 349L0 512L163 512L163 511C141.908 507.885 126.155 485.155 112 471L50 409C35.9395 394.94 18.8731 381.316 7.43982 365C3.91353 359.968 2.85181 354.247 0 349z"/>
<path style="fill:#ff8fb9; stroke:none;" d="M349 349L350 350L349 349M350 350L351 351L350 350M351 351L352 352L351 351z"/>
<path style="fill:#dee7f5; stroke:none;" d="M5 362L6 363L5 362z"/>
<path style="fill:#ff8fb9; stroke:none;" d="M220 482L202 501C207.659 497.014 218.341 488.843 220 482z"/>
<path style="fill: #f1f2f6; stroke:none;" d="M180 511L180 512L451 512L451 482L298 482C274.236 482 247.456 478.5 224 482.148C217.838 483.107 213.166 489.853 209 493.999C201.054 501.907 191.634 509.978 180 511z"/>
<path style="fill:#ff8fb9; stroke:none;" d="M198 503L199 504L198 503M197 504L198 505L197 504M195 505L196 506L195 505M149 506L150 507L149 506M193 506L194 507L193 506M153 508L154 509L153 508M189 508L190 509L189 508M187 509L188 510L187 509M183.667 510.333L184.333 510.667L183.667 510.333M177 511L177 512L180 512L177 511z"/>
</svg>
