<svg version="1.1" id="Layer_1" xmlns="http://www.w3.org/2000/svg" xmlns:xlink="http://www.w3.org/1999/xlink" x="0px" y="0px"
	 width="100%" viewBox="0 0 512 512" enable-background="new 0 0 512 512" xml:space="preserve">
<path fill="#f1f2f6" opacity="1.000000" stroke="none" 
	d="
M1.000000,176.000000 
	C1.000000,117.333336 1.000000,59.166668 1.000000,1.000000 
	C171.666672,1.000000 342.333344,1.000000 513.000000,1.000000 
	C513.000000,171.666672 513.000000,342.333344 513.000000,513.000000 
	C342.333344,513.000000 171.666672,513.000000 1.000000,513.000000 
	C1.000000,400.833344 1.000000,288.666656 1.000000,176.000000 
M494.976074,381.074921 
	C494.927887,370.051025 494.879700,359.027161 494.976654,347.075500 
	C494.928406,331.051422 494.880157,315.027344 494.977783,298.075592 
	C494.929413,280.384979 494.881042,262.694397 494.979034,244.076141 
	C494.930603,226.718277 494.882141,209.360397 494.977753,191.074707 
	C494.929138,175.717270 494.880493,160.359833 494.974731,144.074326 
	C494.926971,129.051163 494.879181,114.027992 494.976166,98.076820 
	C494.981964,77.413330 495.106903,56.748878 494.940247,36.086781 
	C494.863800,26.613319 487.138153,19.303320 479.470093,19.194117 
	C450.651459,18.783705 421.822266,19.113947 392.068909,19.029800 
	C370.377686,19.075880 348.686493,19.121960 326.067566,19.030743 
	C308.044281,19.076632 290.021027,19.122522 271.070129,19.027845 
	C253.379547,19.074114 235.688965,19.120382 217.070480,19.026691 
	C200.379395,19.072929 183.688293,19.119167 166.069473,19.025751 
	C151.378113,19.073366 136.686737,19.120983 121.070068,19.026752 
	C117.436699,19.018358 113.803329,19.003242 110.169960,19.002930 
	C101.963631,19.002228 95.035606,23.431017 93.215439,31.494869 
	C91.873550,37.439827 92.446884,43.817085 92.024254,50.929199 
	C92.072067,59.619778 92.119873,68.310356 92.024902,77.925629 
	C92.024902,82.525047 92.024902,87.124466 92.024902,92.166130 
	C86.597038,92.166130 81.797546,92.166130 76.070602,92.023621 
	C63.580193,92.015305 51.082283,91.761848 38.603809,92.143646 
	C34.711563,92.262733 30.871840,94.098587 26.325331,95.181946 
	C23.883661,99.302231 19.727924,103.267342 19.338123,107.573372 
	C18.367100,118.300011 19.110046,129.181808 19.023352,140.929108 
	C19.071470,154.620270 19.119589,168.311447 19.024508,182.929871 
	C19.072136,197.287140 19.119762,211.644424 19.024065,226.929108 
	C19.071852,241.286606 19.119640,255.644089 19.023691,270.928925 
	C19.071276,283.953033 19.118862,296.977112 19.022392,310.928619 
	C19.070265,323.619598 19.118135,336.310577 19.021957,349.928894 
	C19.069895,362.286835 19.117832,374.644775 19.021589,387.929810 
	C19.013756,417.901031 18.993145,447.872253 19.006346,477.843475 
	C19.010014,486.171997 26.657425,494.912628 34.610798,494.934448 
	C70.072624,495.031769 105.535110,494.889587 141.924637,494.982391 
	C157.282288,494.932861 172.639938,494.883362 188.924881,494.981873 
	C203.615875,494.932373 218.306854,494.882904 233.925217,494.980774 
	C247.949585,494.931458 261.973938,494.882141 276.925568,494.980316 
	C292.283142,494.931305 307.640747,494.882294 323.925598,494.980499 
	C340.949738,494.931244 357.973907,494.881989 375.925415,494.979614 
	C385.234558,494.986145 394.543701,494.998566 403.852844,494.997498 
	C412.327881,494.996552 417.916260,490.831696 421.053345,481.614380 
	C421.369568,479.879730 421.953125,478.146271 421.960876,476.410248 
	C422.041656,458.311554 422.029968,440.212463 422.971466,422.018616 
	C440.452393,422.012024 457.939667,422.256866 475.409760,421.818573 
	C479.673523,421.711609 483.881073,419.363647 488.739014,417.772034 
	C490.825897,413.836395 494.234955,410.055115 494.716400,405.931976 
	C495.635803,398.058472 494.887146,389.990204 494.976074,381.074921 
z"/>
<path fill="#3498db" opacity="1.000000" stroke="none" 
	d="
M140.997360,494.833923 
	C105.535110,494.889587 70.072624,495.031769 34.610798,494.934448 
	C26.657425,494.912628 19.010014,486.171997 19.006346,477.843475 
	C18.993145,447.872253 19.013756,417.901031 19.419279,387.540863 
	C29.300402,395.356903 38.716671,403.641876 48.318428,411.705994 
	C50.492550,413.531891 53.311192,414.590393 55.905376,416.465729 
	C55.977592,430.527527 55.977592,444.125732 55.977592,458.166901 
	C72.394302,458.166901 88.196037,458.166901 104.074112,458.491943 
	C106.054749,460.849640 107.813591,463.046295 109.888306,464.886871 
	C119.298798,473.235229 128.851913,481.423645 138.205948,489.833923 
	C139.549133,491.041565 140.086868,493.145020 140.997360,494.833923 
z"/>
<path fill="#3498db" opacity="1.000000" stroke="none" 
	d="
M488.114471,418.046051 
	C483.881073,419.363647 479.673523,421.711609 475.409760,421.818573 
	C457.939667,422.256866 440.452393,422.012024 422.433472,421.724548 
	C413.569000,413.936188 405.320984,406.351990 396.879822,398.989197 
	C393.178558,395.760864 389.083160,392.984375 385.093323,389.538971 
	C385.068604,366.384521 385.117279,343.693848 385.492737,321.078400 
	C391.617035,326.006348 397.395752,330.881775 403.217194,335.705536 
	C409.401672,340.830078 415.626678,345.905701 421.904358,351.466492 
	C421.974792,362.857086 421.974792,373.783875 421.974792,385.167847 
	C433.403259,385.167847 444.200470,385.167847 455.019958,385.520874 
	C458.677765,389.572174 462.236359,393.350128 465.965179,396.951843 
	C473.298218,404.035065 480.725922,411.020294 488.114471,418.046051 
z"/>
<path fill="#3498db" opacity="1.000000" stroke="none" 
	d="
M392.997040,19.166706 
	C421.822266,19.113947 450.651459,18.783705 479.470093,19.194117 
	C487.138153,19.303320 494.863800,26.613319 494.940247,36.086781 
	C495.106903,56.748878 494.981964,77.413330 494.553345,98.518715 
	C493.228729,98.588600 492.151703,98.418800 491.452759,97.812859 
	C485.457428,92.615005 479.683075,87.150848 473.534729,82.144554 
	C468.636749,78.156425 463.307220,74.698273 458.096863,70.542236 
	C458.024475,65.484955 458.024475,60.890285 458.024475,55.832767 
	C448.577362,55.832767 439.786957,55.832767 430.921692,55.508007 
	C422.526154,47.431568 414.163727,39.724014 405.901642,31.910358 
	C401.510315,27.757416 397.292938,23.420549 392.997040,19.166706 
z"/>
<path fill="#3498db" opacity="1.000000" stroke="none" 
	d="
M392.532959,19.098255 
	C397.292938,23.420549 401.510315,27.757416 405.901642,31.910358 
	C414.163727,39.724014 422.526154,47.431568 430.457703,55.576504 
	C408.377258,55.923882 386.686035,55.878002 364.924591,55.494850 
	C363.674591,53.624401 362.704254,51.854519 361.281708,50.595657 
	C350.359192,40.929771 339.336273,31.377398 328.395599,21.731855 
	C327.709015,21.126554 327.452087,20.033943 326.995270,19.168045 
	C348.686493,19.121960 370.377686,19.075880 392.532959,19.098255 
z"/>
<path fill="#3498db" opacity="1.000000" stroke="none" 
	d="
M385.166748,390.002747 
	C389.083160,392.984375 393.178558,395.760864 396.879822,398.989197 
	C405.320984,406.351990 413.569000,413.936188 421.969696,421.771973 
	C422.029968,440.212463 422.041656,458.311554 421.960876,476.410248 
	C421.953125,478.146271 421.369568,479.879730 420.551300,481.881592 
	C414.051727,477.284790 408.063293,472.409515 402.054077,467.559998 
	C396.436615,463.026642 390.797150,458.520538 385.093933,453.538696 
	C385.069214,432.050873 385.117981,411.026825 385.166748,390.002747 
z"/>
<path fill="#3498db" opacity="1.000000" stroke="none" 
	d="
M326.531433,19.099396 
	C327.452087,20.033943 327.709015,21.126554 328.395599,21.731855 
	C339.336273,31.377398 350.359192,40.929771 361.281708,50.595657 
	C362.704254,51.854519 363.674591,53.624401 364.460754,55.563507 
	C346.043823,55.923584 328.020508,55.877728 309.921478,55.506626 
	C302.591705,48.471889 295.273651,41.829899 288.104431,35.030972 
	C282.637695,29.846600 277.359711,24.463245 271.997742,19.168415 
	C290.021027,19.122522 308.044281,19.076632 326.531433,19.099396 
z"/>
<path fill="#3498db" opacity="1.000000" stroke="none" 
	d="
M385.167389,454.002441 
	C390.797150,458.520538 396.436615,463.026642 402.054077,467.559998 
	C408.063293,472.409515 414.051727,477.284790 420.440979,482.256531 
	C417.916260,490.831696 412.327881,494.996552 403.852844,494.997498 
	C394.543701,494.998566 385.234558,494.986145 375.354614,494.595490 
	C366.467255,487.206116 357.996094,480.373962 349.889374,473.133728 
	C344.649597,468.453949 339.943420,463.176727 335.461823,458.093872 
	C352.231384,458.020477 368.537262,458.020477 384.811554,458.020477 
	C384.963806,456.301300 385.065613,455.151886 385.167389,454.002441 
z"/>
<path fill="#3498db" opacity="1.000000" stroke="none" 
	d="
M92.167679,77.000938 
	C92.119873,68.310356 92.072067,59.619778 92.431198,50.534821 
	C94.003311,50.739361 95.339508,51.139320 96.305641,51.969788 
	C102.167564,57.008507 107.852058,62.256638 113.779762,67.214897 
	C118.665466,71.301567 123.805893,75.083717 128.904663,79.461441 
	C128.975906,83.856186 128.975906,87.790298 128.975906,92.167686 
	C135.069168,92.167686 140.533829,92.167686 146.075562,92.492996 
	C146.481094,93.391251 146.685410,94.107071 147.156204,94.516228 
	C158.690002,104.539886 170.276779,114.502769 181.775238,124.566597 
	C183.088287,125.715820 183.935089,127.397751 184.534332,128.903931 
	C173.379883,128.927658 162.689133,128.880157 151.923004,128.507935 
	C149.632935,125.733643 147.624298,123.051880 145.169174,120.873299 
	C132.132645,109.305222 119.084686,97.745255 105.815414,86.447052 
	C101.623924,82.878181 96.736572,80.126572 92.167679,77.000938 
z"/>
<path fill="#3498db" opacity="1.000000" stroke="none" 
	d="
M128.833435,79.000816 
	C123.805893,75.083717 118.665466,71.301567 113.779762,67.214897 
	C107.852058,62.256638 102.167564,57.008507 96.305641,51.969788 
	C95.339508,51.139320 94.003311,50.739361 92.502487,50.071083 
	C92.446884,43.817085 91.873550,37.439827 93.215439,31.494869 
	C95.035606,23.431017 101.963631,19.002228 110.169960,19.002930 
	C113.803329,19.003242 117.436699,19.018358 121.555199,19.450081 
	C122.640434,21.017456 122.979225,22.455927 123.882874,23.257975 
	C129.941956,28.635746 136.272491,33.714466 142.218307,39.211102 
	C147.995377,44.551746 153.417877,50.275951 158.532516,55.902657 
	C148.476059,55.973583 138.883148,55.973583 128.833435,55.973583 
	C128.833435,64.071892 128.833435,71.536354 128.833435,79.000816 
z"/>
<path fill="#3498db" opacity="1.000000" stroke="none" 
	d="
M494.832672,245.003799 
	C494.881042,262.694397 494.929413,280.384979 494.576141,298.462219 
	C486.475098,292.424866 478.786499,285.987854 471.071991,279.582123 
	C466.793060,276.029114 462.470795,272.528290 458.095123,268.540009 
	C458.070557,250.718506 458.118896,233.360977 458.517792,216.023788 
	C460.014191,216.636749 461.339783,217.026031 462.277069,217.854599 
	C469.080933,223.869232 475.693085,230.105469 482.601440,235.995300 
	C486.444946,239.272095 490.740723,242.018387 494.832672,245.003799 
z"/>
<path fill="#3498db" opacity="1.000000" stroke="none" 
	d="
M271.533936,19.098129 
	C277.359711,24.463245 282.637695,29.846600 288.104431,35.030972 
	C295.273651,41.829899 302.591705,48.471889 309.457703,55.576862 
	C291.379028,55.926296 273.688416,55.880245 255.975952,55.482971 
	C255.532227,54.260086 255.327057,53.140858 254.656189,52.553684 
	C243.534805,42.819637 232.329605,33.181282 221.221970,23.431711 
	C219.910187,22.280325 219.061661,20.601154 217.998383,19.166645 
	C235.688965,19.120382 253.379547,19.074114 271.533936,19.098129 
z"/>
<path fill="#3498db" opacity="1.000000" stroke="none" 
	d="
M27.008074,95.148552 
	C30.871840,94.098587 34.711563,92.262733 38.603809,92.143646 
	C51.082283,91.761848 63.580193,92.015305 76.556183,92.446686 
	C77.753799,94.135841 78.198639,95.698570 79.221336,96.619759 
	C85.734627,102.486557 92.486076,108.091393 98.939034,114.021942 
	C104.120270,118.783714 108.990585,123.883797 113.535065,128.905029 
	C95.714050,128.929245 78.356857,128.882187 60.924236,128.509827 
	C53.564705,121.455299 46.176266,114.834389 39.036037,107.955833 
	C34.823513,103.897675 31.004215,99.431328 27.008074,95.148552 
z"/>
<path fill="#3498db" opacity="1.000000" stroke="none" 
	d="
M494.905853,244.539978 
	C490.740723,242.018387 486.444946,239.272095 482.601440,235.995300 
	C475.693085,230.105469 469.080933,223.869232 462.277069,217.854599 
	C461.339783,217.026031 460.014191,216.636749 458.444611,215.559967 
	C458.069305,197.717850 458.117737,180.359894 458.492310,163.077530 
	C465.327118,168.716690 471.718231,174.426056 478.381683,179.797638 
	C483.693451,184.079620 489.337280,187.949646 494.833710,192.002533 
	C494.882141,209.360397 494.930603,226.718277 494.905853,244.539978 
z"/>
<path fill="#3498db" opacity="1.000000" stroke="none" 
	d="
M217.534424,19.096668 
	C219.061661,20.601154 219.910187,22.280325 221.221970,23.431711 
	C232.329605,33.181282 243.534805,42.819637 254.656189,52.553684 
	C255.327057,53.140858 255.532227,54.260086 255.512024,55.552887 
	C238.712219,55.927578 222.354477,55.881119 205.921814,55.509605 
	C198.200378,48.103748 190.551132,41.025845 182.908203,33.941154 
	C177.600067,29.020737 172.300568,24.090982 166.997208,19.165401 
	C183.688293,19.119167 200.379395,19.072929 217.534424,19.096668 
z"/>
<path fill="#3498db" opacity="1.000000" stroke="none" 
	d="
M334.998108,458.167236 
	C339.943420,463.176727 344.649597,468.453949 349.889374,473.133728 
	C357.996094,480.373962 366.467255,487.206116 374.890930,494.522034 
	C357.973907,494.881989 340.949738,494.931244 323.387268,494.582092 
	C314.883423,486.779266 306.869141,479.426331 298.970581,471.951080 
	C294.219910,467.454956 289.649536,462.768280 285.461792,458.093597 
	C302.283051,458.069031 318.640564,458.118134 334.998108,458.167236 
z"/>
<path fill="#3498db" opacity="1.000000" stroke="none" 
	d="
M458.168030,269.003998 
	C462.470795,272.528290 466.793060,276.029114 471.071991,279.582123 
	C478.786499,285.987854 486.475098,292.424866 494.503174,298.926056 
	C494.880157,315.027344 494.928406,331.051422 494.579407,347.463623 
	C486.717804,341.331573 479.342377,334.705505 471.754730,328.332062 
	C467.403870,324.677429 462.708466,321.433014 458.095642,317.539856 
	C458.071442,301.051880 458.119720,285.027954 458.168030,269.003998 
z"/>
<path fill="#3498db" opacity="1.000000" stroke="none" 
	d="
M494.905731,191.538620 
	C489.337280,187.949646 483.693451,184.079620 478.381683,179.797638 
	C471.718231,174.426056 465.327118,168.716690 458.420319,162.613632 
	C458.071075,146.716812 458.119934,131.359467 458.504578,116.072144 
	C465.170074,121.204887 471.504395,126.261856 477.828094,131.332047 
	C483.502075,135.881271 489.164398,140.445053 494.831848,145.002396 
	C494.880493,160.359833 494.929138,175.717270 494.905731,191.538620 
z"/>
<path fill="#3498db" opacity="1.000000" stroke="none" 
	d="
M26.666702,95.165253 
	C31.004215,99.431328 34.823513,103.897675 39.036037,107.955833 
	C46.176266,114.834389 53.564705,121.455299 60.483582,128.580963 
	C58.858391,128.977417 57.598431,128.977417 55.834423,128.977417 
	C55.834423,142.975250 55.834423,156.488449 55.509758,169.925568 
	C54.609676,169.529373 53.947662,169.305054 53.471794,168.874817 
	C45.858372,161.991440 38.380482,154.952698 30.623484,148.236038 
	C27.082243,145.169739 23.001152,142.726913 19.164909,140.001312 
	C19.110046,129.181808 18.367100,118.300011 19.338123,107.573372 
	C19.727924,103.267342 23.883661,99.302231 26.666702,95.165253 
z"/>
<path fill="#3498db" opacity="1.000000" stroke="none" 
	d="
M284.998108,458.167267 
	C289.649536,462.768280 294.219910,467.454956 298.970581,471.951080 
	C306.869141,479.426331 314.883423,486.779266 322.923645,494.508484 
	C307.640747,494.882294 292.283142,494.931305 276.387177,494.581848 
	C267.883240,486.779022 259.868958,479.426178 251.970444,471.950989 
	C247.219742,467.454926 242.649445,462.768250 238.461746,458.093506 
	C254.282974,458.068909 269.640533,458.118103 284.998108,458.167267 
z"/>
<path fill="#3498db" opacity="1.000000" stroke="none" 
	d="
M166.533340,19.095575 
	C172.300568,24.090982 177.600067,29.020737 182.908203,33.941154 
	C190.551132,41.025845 198.200378,48.103748 205.457977,55.579391 
	C189.711365,55.926735 174.353729,55.879230 158.996078,55.831726 
	C153.417877,50.275951 147.995377,44.551746 142.218307,39.211102 
	C136.272491,33.714466 129.941956,28.635746 123.882874,23.257975 
	C122.979225,22.455927 122.640434,21.017456 122.017853,19.521006 
	C136.686737,19.120983 151.378113,19.073366 166.533340,19.095575 
z"/>
<path fill="#3498db" opacity="1.000000" stroke="none" 
	d="
M141.460999,494.908142 
	C140.086868,493.145020 139.549133,491.041565 138.205948,489.833923 
	C128.851913,481.423645 119.298798,473.235229 109.888306,464.886871 
	C107.813591,463.046295 106.054749,460.849640 104.537720,458.417664 
	C120.616020,458.067627 136.307037,458.116882 152.019958,458.524353 
	C152.806625,460.496887 153.182755,462.535217 154.402481,463.653198 
	C160.121109,468.894928 166.203445,473.740906 171.902039,479.003113 
	C177.428009,484.105896 182.644943,489.543365 187.997589,494.833862 
	C172.639938,494.883362 157.282288,494.932861 141.460999,494.908142 
z"/>
<path fill="#3498db" opacity="1.000000" stroke="none" 
	d="
M494.903290,144.538361 
	C489.164398,140.445053 483.502075,135.881271 477.828094,131.332047 
	C471.504395,126.261856 465.170074,121.204887 458.433105,115.608109 
	C458.073608,100.384323 458.121429,85.694595 458.169250,71.004860 
	C463.307220,74.698273 468.636749,78.156425 473.534729,82.144554 
	C479.683075,87.150848 485.457428,92.615005 491.452759,97.812859 
	C492.151703,98.418800 493.228729,98.588600 494.480957,98.982719 
	C494.879181,114.027992 494.926971,129.051163 494.903290,144.538361 
z"/>
<path fill="#3498db" opacity="1.000000" stroke="none" 
	d="
M188.461243,494.907867 
	C182.644943,489.543365 177.428009,484.105896 171.902039,479.003113 
	C166.203445,473.740906 160.121109,468.894928 154.402481,463.653198 
	C153.182755,462.535217 152.806625,460.496887 152.483582,458.450348 
	C166.949478,458.067505 180.973648,458.116852 195.073853,458.490906 
	C203.471115,466.567352 211.834351,474.274719 220.096558,482.088867 
	C224.487381,486.241516 228.703094,490.579254 232.997849,494.833435 
	C218.306854,494.882904 203.615875,494.932373 188.461243,494.907867 
z"/>
<path fill="#3498db" opacity="1.000000" stroke="none" 
	d="
M19.167393,226.001694 
	C19.119762,211.644424 19.072136,197.287140 19.431513,182.535446 
	C21.251619,182.960602 22.842772,183.577042 24.048182,184.633575 
	C30.612400,190.387039 36.968960,196.381866 43.626709,202.022476 
	C47.471371,205.279770 51.749298,208.025681 55.903801,211.465500 
	C55.927853,226.620087 55.880318,241.310944 55.507996,255.925812 
	C54.609383,255.530701 53.951370,255.305573 53.474388,254.878357 
	C46.466415,248.601593 39.594479,242.167221 32.450539,236.050217 
	C28.241032,232.445847 23.609257,229.334671 19.167393,226.001694 
z"/>
<path fill="#3498db" opacity="1.000000" stroke="none" 
	d="
M19.095730,226.465393 
	C23.609257,229.334671 28.241032,232.445847 32.450539,236.050217 
	C39.594479,242.167221 46.466415,248.601593 53.474388,254.878357 
	C53.951370,255.305573 54.609383,255.530701 55.579613,256.389526 
	C55.928200,270.953430 55.880375,284.977600 55.505898,298.924866 
	C49.390732,294.003265 43.682838,289.057892 37.791443,284.341705 
	C31.675941,279.446106 25.382856,274.772369 19.167427,270.001587 
	C19.119640,255.644089 19.071852,241.286606 19.095730,226.465393 
z"/>
<path fill="#3498db" opacity="1.000000" stroke="none" 
	d="
M233.461533,494.907104 
	C228.703094,490.579254 224.487381,486.241516 220.096558,482.088867 
	C211.834351,474.274719 203.471115,466.567352 195.537567,458.417267 
	C209.949539,458.068359 223.973816,458.117798 237.998077,458.167236 
	C242.649445,462.768250 247.219742,467.454926 251.970444,471.950989 
	C259.868958,479.426178 267.883240,486.779022 275.923553,494.508087 
	C261.973938,494.882141 247.949585,494.931458 233.461533,494.907104 
z"/>
<path fill="#3498db" opacity="1.000000" stroke="none" 
	d="
M113.998878,128.833755 
	C108.990585,123.883797 104.120270,118.783714 98.939034,114.021942 
	C92.486076,108.091393 85.734627,102.486557 79.221336,96.619759 
	C78.198639,95.698570 77.753799,94.135841 77.019913,92.517944 
	C81.797546,92.166130 86.597038,92.166130 92.024902,92.166130 
	C92.024902,87.124466 92.024902,82.525047 92.096298,77.463287 
	C96.736572,80.126572 101.623924,82.878181 105.815414,86.447052 
	C119.084686,97.745255 132.132645,109.305222 145.169174,120.873299 
	C147.624298,123.051880 149.632935,125.733643 151.459244,128.579239 
	C138.713562,128.928101 126.356216,128.880920 113.998878,128.833755 
z"/>
<path fill="#3498db" opacity="1.000000" stroke="none" 
	d="
M55.832214,211.001770 
	C51.749298,208.025681 47.471371,205.279770 43.626709,202.022476 
	C36.968960,196.381866 30.612400,190.387039 24.048182,184.633575 
	C22.842772,183.577042 21.251619,182.960602 19.503113,182.071808 
	C19.119589,168.311447 19.071470,154.620270 19.094131,140.465210 
	C23.001152,142.726913 27.082243,145.169739 30.623484,148.236038 
	C38.380482,154.952698 45.858372,161.991440 53.471794,168.874817 
	C53.947662,169.305054 54.609676,169.529373 55.580650,170.389435 
	C55.928207,184.286835 55.880207,197.644302 55.832214,211.001770 
z"/>
<path fill="#3498db" opacity="1.000000" stroke="none" 
	d="
M19.095560,270.465271 
	C25.382856,274.772369 31.675941,279.446106 37.791443,284.341705 
	C43.682838,289.057892 49.390732,294.003265 55.577824,299.388550 
	C55.928787,312.953217 55.881172,325.977356 55.504662,338.924103 
	C53.636551,337.890259 51.933933,337.121124 50.585903,335.945435 
	C44.120346,330.306488 37.862045,324.425446 31.304483,318.898102 
	C27.477636,315.672455 23.226625,312.950043 19.166447,310.001221 
	C19.118862,296.977112 19.071276,283.953033 19.095560,270.465271 
z"/>
<path fill="#3498db" opacity="1.000000" stroke="none" 
	d="
M19.094419,310.464905 
	C23.226625,312.950043 27.477636,315.672455 31.304483,318.898102 
	C37.862045,324.425446 44.120346,330.306488 50.585903,335.945435 
	C51.933933,337.121124 53.636551,337.890259 55.576687,339.387817 
	C55.929535,352.619812 55.881470,365.310791 55.482414,377.980042 
	C54.231785,377.588715 53.159222,377.419952 52.459797,376.817780 
	C46.714458,371.871399 41.123779,366.742798 35.316277,361.872040 
	C30.043592,357.449829 24.557833,353.281708 19.166008,349.001556 
	C19.118135,336.310577 19.070265,323.619598 19.094419,310.464905 
z"/>
<path fill="#3498db" opacity="1.000000" stroke="none" 
	d="
M19.093983,349.465210 
	C24.557833,353.281708 30.043592,357.449829 35.316277,361.872040 
	C41.123779,366.742798 46.714458,371.871399 52.459797,376.817780 
	C53.159222,377.419952 54.231785,377.588715 55.554470,378.443695 
	C55.929401,391.286743 55.881283,403.644440 55.833160,416.002136 
	C53.311192,414.590393 50.492550,413.531891 48.318428,411.705994 
	C38.716671,403.641876 29.300402,395.356903 19.491369,387.077332 
	C19.117832,374.644775 19.069895,362.286835 19.093983,349.465210 
z"/>
<path fill="#3498db" opacity="1.000000" stroke="none" 
	d="
M488.426758,417.909058 
	C480.725922,411.020294 473.298218,404.035065 465.965179,396.951843 
	C462.236359,393.350128 458.677765,389.572174 455.455017,385.446045 
	C456.578644,383.733307 457.874542,382.462830 457.906586,381.161224 
	C458.137634,371.778503 458.112762,362.389496 458.504395,353.072449 
	C460.004852,353.741364 461.343964,354.139160 462.306610,354.972076 
	C468.400696,360.244751 474.311157,365.733246 480.482605,370.911743 
	C485.109619,374.794342 490.037140,378.318848 494.830902,382.002777 
	C494.887146,389.990204 495.635803,398.058472 494.716400,405.931976 
	C494.234955,410.055115 490.825897,413.836395 488.426758,417.909058 
z"/>
<path fill="#3498db" opacity="1.000000" stroke="none" 
	d="
M494.903503,381.538849 
	C490.037140,378.318848 485.109619,374.794342 480.482605,370.911743 
	C474.311157,365.733246 468.400696,360.244751 462.306610,354.972076 
	C461.343964,354.139160 460.004852,353.741364 458.431824,352.608521 
	C458.071930,340.717712 458.120026,329.360840 458.168152,318.003906 
	C462.708466,321.433014 467.403870,324.677429 471.754730,328.332062 
	C479.342377,334.705505 486.717804,341.331573 494.506836,347.927490 
	C494.879700,359.027161 494.927887,370.051025 494.903503,381.538849 
z"/>
<path fill="#f1f2f6" opacity="1.000000" stroke="none" 
	d="
M55.905380,416.465729 
	C55.881283,403.644440 55.929401,391.286743 55.905464,378.465393 
	C55.881470,365.310791 55.929535,352.619812 55.905579,339.465149 
	C55.881172,325.977356 55.928787,312.953217 55.904476,299.465454 
	C55.880375,284.977600 55.928200,270.953430 55.904404,256.465515 
	C55.880318,241.310944 55.927853,226.620087 55.903797,211.465500 
	C55.880207,197.644302 55.928207,184.286835 55.905315,170.465515 
	C55.834423,156.488449 55.834423,142.975250 55.834423,128.977417 
	C57.598431,128.977417 58.858391,128.977417 60.559010,128.906281 
	C78.356857,128.882187 95.714050,128.929245 113.535065,128.905029 
	C126.356216,128.880920 138.713562,128.928101 151.534637,128.903961 
	C162.689133,128.880157 173.379883,128.927658 184.998199,128.976349 
	C200.616379,128.929855 215.306992,128.882156 230.461472,128.906799 
	C250.615646,128.930954 270.305939,128.882767 290.460144,128.907318 
	C307.948364,128.931366 324.972626,128.882660 342.460876,128.906250 
	C355.282776,128.930222 367.640686,128.881927 380.429565,128.905487 
	C382.209106,129.085358 383.557770,129.193375 384.864594,129.298035 
	C384.979614,131.856750 385.072754,133.928986 385.095856,136.465210 
	C385.072113,149.953506 385.118378,162.977829 385.094849,176.466064 
	C385.071503,190.621124 385.117981,204.312271 385.094727,218.467255 
	C385.071869,234.288223 385.118713,249.645355 385.094971,265.466248 
	C385.071594,284.287750 385.118774,302.645447 385.165955,321.003174 
	C385.117279,343.693848 385.068604,366.384521 385.093323,389.538971 
	C385.117981,411.026825 385.069214,432.050873 385.093933,453.538696 
	C385.065613,455.151886 384.963806,456.301300 384.811554,458.020477 
	C368.537262,458.020477 352.231384,458.020477 335.461823,458.093872 
	C318.640564,458.118134 302.283051,458.069031 285.461792,458.093597 
	C269.640533,458.118103 254.282974,458.068909 238.461746,458.093506 
	C223.973816,458.117798 209.949539,458.068359 195.461548,458.092560 
	C180.973648,458.116852 166.949478,458.067505 152.461670,458.092163 
	C136.307037,458.116882 120.616020,458.067627 104.461388,458.092651 
	C88.196037,458.166901 72.394302,458.166901 55.977592,458.166901 
	C55.977592,444.125732 55.977592,430.527527 55.905380,416.465729 
M281.071136,275.023163 
	C270.046417,275.071320 259.021698,275.119446 247.093246,275.024963 
	C244.426285,275.024963 241.759308,275.024963 238.832138,275.024963 
	C238.832138,271.495758 238.832138,268.749542 238.978226,265.075531 
	C238.930054,254.051117 238.881882,243.026718 238.978668,231.074554 
	C238.978668,215.161072 238.978668,199.247589 238.978668,183.308502 
	C226.377777,183.308502 214.331390,183.308502 202.166336,183.308502 
	C202.166336,189.744888 202.166336,195.873734 202.023621,202.929916 
	C202.071716,214.954376 202.119797,226.978851 202.025177,239.930588 
	C202.025177,251.524216 202.025177,263.117859 202.025177,275.165070 
	C192.596878,275.165070 183.798111,275.165070 174.071472,275.023407 
	C158.380539,275.071442 142.689606,275.119476 126.072350,275.024261 
	C120.810478,275.024261 115.548607,275.024261 110.318909,275.024261 
	C110.318909,287.651764 110.318909,299.702759 110.318909,311.833191 
	C128.091934,311.833191 145.545197,311.833191 163.925827,311.979736 
	C176.522095,311.979736 189.118378,311.979736 202.165710,311.979736 
	C202.165710,324.400970 202.165710,336.201233 202.022751,348.929016 
	C202.022751,367.180603 202.022751,385.432220 202.022751,403.696106 
	C214.617554,403.696106 226.670532,403.696106 238.833725,403.696106 
	C238.833725,394.259247 238.833725,385.130371 238.980133,375.074127 
	C238.931747,360.383026 238.883362,345.691956 238.981613,330.074036 
	C238.981613,324.143524 238.981613,318.213013 238.981613,311.832153 
	C254.738586,311.832153 269.867584,311.832153 285.924377,311.978088 
	C298.282257,311.930115 310.640167,311.882111 323.894257,311.978851 
	C326.162354,311.978851 328.430450,311.978851 330.682709,311.978851 
	C330.682709,299.376617 330.682709,287.323608 330.682709,275.165619 
	C314.242340,275.165619 298.120514,275.165619 281.071136,275.023163 
z"/>
<path fill="#f1f2f6" opacity="1.000000" stroke="none" 
	d="
M458.095642,317.539886 
	C458.120026,329.360840 458.071930,340.717712 458.096405,352.538544 
	C458.112762,362.389496 458.137634,371.778503 457.906586,381.161224 
	C457.874542,382.462830 456.578644,383.733307 455.432739,385.093018 
	C444.200470,385.167847 433.403259,385.167847 421.974792,385.167847 
	C421.974792,373.783875 421.974792,362.857086 421.977295,351.002655 
	C421.931396,331.384064 421.882965,312.693146 421.906860,293.538330 
	C421.931274,277.717285 421.883362,262.360077 421.908142,246.539032 
	C421.932434,232.717453 421.884033,219.359711 421.907776,205.538101 
	C421.931244,191.716446 421.882629,178.358673 421.905762,164.537048 
	C421.929535,152.716263 421.881531,141.359329 421.905518,129.538483 
	C421.985321,122.583580 422.065430,116.091652 421.983490,109.601768 
	C421.869232,100.551399 413.890472,92.205772 404.950714,92.045303 
	C396.303467,91.890091 387.649506,92.110435 378.534485,92.096375 
	C366.379974,92.073257 354.689423,92.119576 342.534912,92.095894 
	C329.046478,92.072609 316.022034,92.119324 302.533722,92.096123 
	C286.045258,92.072639 270.020630,92.119064 253.532227,92.095703 
	C232.711670,92.072693 212.354889,92.119469 191.534302,92.095581 
	C176.046494,92.072517 161.022491,92.120102 145.998489,92.167686 
	C140.533829,92.167686 135.069168,92.167686 128.975906,92.167686 
	C128.975906,87.790298 128.975906,83.856186 128.904663,79.461441 
	C128.833435,71.536354 128.833435,64.071892 128.833435,55.973583 
	C138.883148,55.973583 148.476059,55.973583 158.532516,55.902657 
	C174.353729,55.879230 189.711365,55.926735 205.532867,55.904449 
	C222.354477,55.881119 238.712219,55.927578 255.533905,55.904114 
	C273.688416,55.880245 291.379028,55.926296 309.533386,55.902107 
	C328.020508,55.877728 346.043823,55.923584 364.530945,55.900780 
	C386.686035,55.878002 408.377258,55.923882 430.532532,55.901264 
	C439.786957,55.832767 448.577362,55.832767 458.024475,55.832767 
	C458.024475,60.890285 458.024475,65.484955 458.096863,70.542236 
	C458.121429,85.694595 458.073608,100.384323 458.097290,115.538094 
	C458.119934,131.359467 458.071075,146.716812 458.094177,162.538040 
	C458.117737,180.359894 458.069305,197.717850 458.094055,215.539642 
	C458.118896,233.360977 458.070557,250.718506 458.095123,268.540009 
	C458.119720,285.027954 458.071442,301.051880 458.095642,317.539886 
z"/>
<path fill="#3498db" opacity="1.000000" stroke="none" 
	d="
M421.834534,294.002197 
	C421.882965,312.693146 421.931396,331.384064 421.906891,350.538849 
	C415.626678,345.905701 409.401672,340.830078 403.217194,335.705536 
	C397.395752,330.881775 391.617035,326.006348 385.492737,321.078400 
	C385.118774,302.645447 385.071594,284.287750 385.421814,265.541595 
	C394.584198,272.640015 403.273315,280.218658 412.156769,287.562164 
	C415.127350,290.017761 418.594421,291.872681 421.834534,294.002197 
z"/>
<path fill="#3498db" opacity="1.000000" stroke="none" 
	d="
M146.075562,92.492996 
	C161.022491,92.120102 176.046494,92.072517 191.609787,92.420288 
	C200.115204,100.220276 208.130447,107.573006 216.029068,115.048965 
	C220.779175,119.544884 225.347534,124.232819 229.997589,128.834457 
	C215.306992,128.882156 200.616379,128.929855 185.461914,128.905121 
	C183.935089,127.397751 183.088287,125.715820 181.775238,124.566597 
	C170.276779,114.502769 158.690002,104.539886 147.156204,94.516228 
	C146.685410,94.107071 146.481094,93.391251 146.075562,92.492996 
z"/>
<path fill="#3498db" opacity="1.000000" stroke="none" 
	d="
M284.996582,311.832153 
	C269.867584,311.832153 254.738586,311.832153 238.981613,311.832153 
	C238.981613,318.213013 238.981613,324.143524 238.557114,330.515747 
	C232.194992,326.244263 226.115677,321.697266 220.351028,316.781281 
	C210.242966,308.161255 200.216751,299.437500 190.376099,290.514740 
	C185.017105,285.655579 180.110168,280.297913 174.999344,275.165070 
	C183.798111,275.165070 192.596878,275.165070 202.025177,275.165070 
	C202.025177,263.117859 202.025177,251.524216 202.468018,239.471497 
	C205.355209,240.262421 208.140945,241.109085 210.181488,242.836182 
	C216.988922,248.597885 223.426453,254.796280 230.224899,260.569214 
	C232.785660,262.743683 235.945435,264.212708 238.832138,266.003326 
	C238.832138,268.749542 238.832138,271.495758 238.832138,275.024963 
	C241.759308,275.024963 244.426285,275.024963 247.620819,275.420898 
	C256.100952,283.212769 264.155457,290.503052 271.967133,298.044891 
	C276.511505,302.432251 280.666412,307.222931 284.996582,311.832153 
z"/>
<path fill="#3498db" opacity="1.000000" stroke="none" 
	d="
M174.535400,275.094238 
	C180.110168,280.297913 185.017105,285.655579 190.376099,290.514740 
	C200.216751,299.437500 210.242966,308.161255 220.351028,316.781281 
	C226.115677,321.697266 232.194992,326.244263 238.483795,330.979126 
	C238.883362,345.691956 238.931747,360.383026 238.556091,375.516174 
	C231.642471,370.693329 225.227539,365.332733 218.640045,360.193359 
	C213.255447,355.992462 207.664932,352.055481 202.165710,348.001495 
	C202.165710,336.201233 202.165710,324.400970 202.165710,311.979736 
	C189.118378,311.979736 176.522095,311.979736 163.440903,311.548737 
	C162.276886,309.646240 161.961197,307.775909 160.857544,306.770386 
	C155.247955,301.659760 149.286270,296.932251 143.732895,291.764282 
	C137.984604,286.414917 132.563110,280.714386 126.998665,275.167480 
	C142.689606,275.119476 158.380539,275.071442 174.535400,275.094238 
z"/>
<path fill="#3498db" opacity="1.000000" stroke="none" 
	d="
M230.461472,128.906799 
	C225.347534,124.232819 220.779175,119.544884 216.029068,115.048965 
	C208.130447,107.573006 200.115204,100.220276 192.073608,92.490944 
	C212.354889,92.119469 232.711670,92.072693 253.538193,92.464569 
	C254.629623,94.379478 254.861206,96.287148 255.937622,97.260468 
	C261.950745,102.697594 268.311218,107.753387 274.273590,113.242966 
	C279.699768,118.238892 284.769440,123.622093 289.996246,128.834579 
	C270.305939,128.882767 250.615646,128.930954 230.461472,128.906799 
z"/>
<path fill="#3498db" opacity="1.000000" stroke="none" 
	d="
M421.833557,130.002380 
	C421.881531,141.359329 421.929535,152.716263 421.580383,164.461487 
	C414.674377,159.285431 408.283386,153.574890 401.619324,148.203125 
	C396.307617,143.921463 390.662842,140.053070 385.165894,136.001221 
	C385.072754,133.928986 384.979614,131.856750 384.864594,129.298035 
	C383.557770,129.193375 382.209106,129.085358 380.407928,128.552643 
	C379.199036,126.903511 378.680786,125.410728 377.649689,124.495987 
	C366.991943,115.040787 356.222351,105.711548 345.575684,96.244026 
	C344.420990,95.217239 343.843903,93.540932 342.998901,92.165894 
	C354.689423,92.119576 366.379974,92.073257 378.604980,92.433090 
	C380.469055,94.701332 381.519165,96.872147 383.176361,98.372322 
	C390.558105,105.054543 397.978973,111.707779 405.653076,118.047813 
	C410.815277,122.312637 416.424377,126.036499 421.833557,130.002380 
z"/>
<path fill="#3498db" opacity="1.000000" stroke="none" 
	d="
M290.460144,128.907318 
	C284.769440,123.622093 279.699768,118.238892 274.273590,113.242966 
	C268.311218,107.753387 261.950745,102.697594 255.937622,97.260468 
	C254.861206,96.287148 254.629623,94.379478 254.001984,92.534355 
	C270.020630,92.119064 286.045258,92.072639 302.610107,92.421661 
	C303.821167,93.751549 304.341522,94.858788 305.185852,95.593971 
	C314.574829,103.769547 324.071625,111.822166 333.406677,120.058350 
	C336.467957,122.759285 339.144470,125.896347 341.996918,128.833954 
	C324.972626,128.882660 307.948364,128.931366 290.460144,128.907318 
z"/>
<path fill="#3498db" opacity="1.000000" stroke="none" 
	d="
M421.906860,293.538330 
	C418.594421,291.872681 415.127350,290.017761 412.156769,287.562164 
	C403.273315,280.218658 394.584198,272.640015 385.492371,265.077820 
	C385.118713,249.645355 385.071869,234.288223 385.421692,218.542206 
	C394.349426,225.405670 402.804535,232.750336 411.450775,239.862671 
	C414.683044,242.521500 418.360840,244.638718 421.835449,247.002884 
	C421.883362,262.360077 421.931274,277.717285 421.906860,293.538330 
z"/>
<path fill="#3498db" opacity="1.000000" stroke="none" 
	d="
M421.908173,246.539032 
	C418.360840,244.638718 414.683044,242.521500 411.450775,239.862671 
	C402.804535,232.750336 394.349426,225.405670 385.491394,218.078369 
	C385.117981,204.312271 385.071503,190.621124 385.446106,176.486832 
	C386.769958,176.414764 387.848602,176.582489 388.548767,177.187912 
	C396.807098,184.328842 404.998230,191.547424 413.231232,198.717758 
	C416.064758,201.185577 418.965576,203.576111 421.835632,206.001953 
	C421.884033,219.359711 421.932434,232.717453 421.908173,246.539032 
z"/>
<path fill="#3498db" opacity="1.000000" stroke="none" 
	d="
M202.094238,348.465271 
	C207.664932,352.055481 213.255447,355.992462 218.640045,360.193359 
	C225.227539,365.332733 231.642471,370.693329 238.482880,375.979858 
	C238.833725,385.130371 238.833725,394.259247 238.833725,403.696106 
	C226.670532,403.696106 214.617554,403.696106 202.022751,403.696106 
	C202.022751,385.432220 202.022751,367.180603 202.094238,348.465271 
z"/>
<path fill="#3498db" opacity="1.000000" stroke="none" 
	d="
M421.907776,205.538086 
	C418.965576,203.576111 416.064758,201.185577 413.231232,198.717758 
	C404.998230,191.547424 396.807098,184.328842 388.548767,177.187912 
	C387.848602,176.582489 386.769958,176.414764 385.515900,176.022919 
	C385.118378,162.977829 385.072113,149.953506 385.095856,136.465210 
	C390.662842,140.053070 396.307617,143.921463 401.619324,148.203125 
	C408.283386,153.574890 414.674377,159.285431 421.508606,164.925323 
	C421.882629,178.358673 421.931244,191.716446 421.907776,205.538086 
z"/>
<path fill="#3498db" opacity="1.000000" stroke="none" 
	d="
M342.460876,128.906250 
	C339.144470,125.896347 336.467957,122.759285 333.406677,120.058350 
	C324.071625,111.822166 314.574829,103.769547 305.185852,95.593971 
	C304.341522,94.858788 303.821167,93.751549 303.073975,92.491562 
	C316.022034,92.119324 329.046478,92.072609 342.534912,92.095894 
	C343.843903,93.540932 344.420990,95.217239 345.575684,96.244026 
	C356.222351,105.711548 366.991943,115.040787 377.649689,124.495987 
	C378.680786,125.410728 379.199036,126.903511 379.976990,128.480789 
	C367.640686,128.881927 355.282776,128.930222 342.460876,128.906250 
z"/>
<path fill="#3498db" opacity="1.000000" stroke="none" 
	d="
M126.535507,275.095886 
	C132.563110,280.714386 137.984604,286.414917 143.732895,291.764282 
	C149.286270,296.932251 155.247955,301.659760 160.857544,306.770386 
	C161.961197,307.775909 162.276886,309.646240 162.977234,311.475464 
	C145.545197,311.833191 128.091934,311.833191 110.318909,311.833191 
	C110.318909,299.702759 110.318909,287.651764 110.318909,275.024261 
	C115.548607,275.024261 120.810478,275.024261 126.535507,275.095886 
z"/>
<path fill="#3498db" opacity="1.000000" stroke="none" 
	d="
M238.905182,265.539429 
	C235.945435,264.212708 232.785660,262.743683 230.224899,260.569214 
	C223.426453,254.796280 216.988922,248.597885 210.181488,242.836182 
	C208.140945,241.109085 205.355209,240.262421 202.539383,239.007858 
	C202.119797,226.978851 202.071716,214.954376 202.419708,202.540771 
	C210.281021,208.671616 217.657501,215.297241 225.245697,221.670837 
	C229.597473,225.326050 234.292953,228.572083 238.833710,232.002304 
	C238.881882,243.026718 238.930054,254.051117 238.905182,265.539429 
z"/>
<path fill="#3498db" opacity="1.000000" stroke="none" 
	d="
M238.906189,231.538422 
	C234.292953,228.572083 229.597473,225.326050 225.245697,221.670837 
	C217.657501,215.297241 210.281021,208.671616 202.491074,202.077087 
	C202.166336,195.873734 202.166336,189.744888 202.166336,183.308502 
	C214.331390,183.308502 226.377777,183.308502 238.978668,183.308502 
	C238.978668,199.247589 238.978668,215.161072 238.906189,231.538422 
z"/>
<path fill="#3498db" opacity="1.000000" stroke="none" 
	d="
M285.460480,311.905121 
	C280.666412,307.222931 276.511505,302.432251 271.967133,298.044891 
	C264.155457,290.503052 256.100952,283.212769 248.072662,275.492249 
	C259.021698,275.119446 270.046417,275.071320 281.610199,275.419098 
	C290.437592,283.546295 298.607666,291.409973 307.058502,298.959320 
	C312.145721,303.503876 317.670105,307.559052 322.998047,311.834106 
	C310.640167,311.882111 298.282257,311.930115 285.460480,311.905121 
z"/>
<path fill="#3498db" opacity="1.000000" stroke="none" 
	d="
M323.446167,311.906494 
	C317.670105,307.559052 312.145721,303.503876 307.058502,298.959320 
	C298.607666,291.409973 290.437592,283.546295 282.073975,275.490326 
	C298.120514,275.165619 314.242340,275.165619 330.682709,275.165619 
	C330.682709,287.323608 330.682709,299.376617 330.682709,311.978851 
	C328.430450,311.978851 326.162354,311.978851 323.446167,311.906494 
z"/>
<path fill="#3498db" opacity="1.000000" stroke="none" 
	d="
M421.905518,129.538483 
	C416.424377,126.036499 410.815277,122.312637 405.653076,118.047813 
	C397.978973,111.707779 390.558105,105.054543 383.176361,98.372322 
	C381.519165,96.872147 380.469055,94.701332 379.068970,92.502541 
	C387.649506,92.110435 396.303467,91.890091 404.950714,92.045303 
	C413.890472,92.205772 421.869232,100.551399 421.983490,109.601768 
	C422.065430,116.091652 421.985321,122.583580 421.905518,129.538483 
z"/>
</svg>