<?xml version="1.0" standalone="yes"?>
<svg xmlns="http://www.w3.org/2000/svg" width="512" height="512">
<path style="fill:#f1f2f6; stroke:none;" d="M0 0L0 512L118 512L118 511C111.373 505.212 111.249 493.24 109.6 485C105.338 463.692 101.461 442.309 97.1998 421C82.4864 347.423 69.113 273.576 54.3997 200C50.4051 180.024 46.7709 159.978 42.8002 140C41.4116 133.014 36.9713 121.963 39.6034 115.015C42.6507 106.972 55.8967 107.021 63 105.6C80.6299 102.074 98.2876 98.3331 116 95.25C120.795 94.4154 132.792 94.2685 135.972 90.2616C139.451 85.8792 137 72.4438 137 67C137 47.8387 131.11 16.6766 141 0L0 0z"/>
<path style="fill:#fddf77; stroke:none;" d="M218 14L217 14C201.997 -2.37085 185.031 -2.40192 170 14C163.77 9.21103 148.582 -4.84113 140.228 1.60339C132.779 7.35092 137 32.3152 137 41C137 71.3922 138 101.622 138 132C138 143.055 134.387 161.71 138.742 171.892C141.178 177.586 148.917 176.998 154 177L198 177L233 177C237.823 177 243.936 177.745 247.486 173.721C254.016 166.321 250 144.422 250 135L250 39C250 30.3192 253.704 10.2477 248.397 3.14813C241.263 -6.39435 223.221 8.30267 218 14z"/>
<path style="fill:#f1f2f6; stroke:none;" d="M149 0L149 1L169 14L170 14L190 1C179.25 -3.5108 160.696 0 149 0M198 0L198 1L217 14L218 14L238 1C227.488 -3.41101 209.434 0 198 0M246 0C251.014 7.97137 250 15.85 250 25L250 69C289.415 65.8633 330.199 53.9589 369 46.1998C378.988 44.2024 389.01 42.3943 399 40.3997C403.556 39.4901 409.525 37.7343 413.892 40.179C421.223 44.2826 421.226 60.609 422.611 68C427.613 94.696 432.874 121.367 438.2 148C446.522 189.615 454.088 231.384 462.4 273C464.928 285.657 467.27 298.345 469.8 311C470.925 316.627 473.761 323.974 472.9 329.715C472.277 333.863 468.326 337.662 466.025 341C460.568 348.918 455.334 356.999 450 365C436.155 385.768 421.845 406.232 408 427C401.007 437.49 394.546 450.881 385.485 459.697C380.896 464.162 371.984 464.01 366 465.2C350.007 468.379 333.988 471.402 318 474.6C278.719 482.458 239.283 489.554 200 497.4C176.44 502.105 151.949 509.094 128 511L128 512L512 512L512 0L246 0z"/>
<path style="fill:#f7a7c5; stroke:none;" d="M250 69L250 144C250 151.566 252.824 166.445 248.258 172.811C245.086 177.233 239.853 176.998 235 177L202 177L160 177C154.682 177 146.888 178.409 142.105 175.682C135.332 171.82 137.32 161.326 134.243 155C125.104 136.211 110.78 117.063 105 97C88.9252 101.159 72.2848 103.564 56 106.8C50.5547 107.882 42.0058 107.924 39.6034 114.044C36.7236 121.38 41.1333 132.654 42.6003 140C46.523 159.641 50.0721 179.358 54 199C68.7801 272.91 82.2199 347.09 97 421C101.328 442.642 105.271 464.359 109.6 486C110.892 492.455 111.045 505.836 116.419 510.258C121.327 514.296 130.532 511.077 136 510.001C152.316 506.79 168.693 503.862 185 500.6C251.096 487.379 318.166 470.631 385 462C378.388 436.445 374.777 409.885 369.6 384C368.161 376.804 362.464 361.803 366.029 355.044C370.116 347.292 384.476 347.48 392 345.999C409.333 342.589 426.679 339.264 444 335.8C453.569 333.887 464.232 330.569 474 331C456.353 259.368 446.074 185.353 431.6 113C428.005 95.0247 424.669 76.9983 421.197 59C420.163 53.6385 419.972 43.3105 414.775 40.179C405.097 34.3465 380.471 43.7061 370 45.8002C330.338 53.7315 290.101 63.8212 250 69M135 91L136 92L135 91z"/>
<path style="fill:#f184a8; stroke:none;" d="M136 91L105 97C108.865 118.681 127.523 139.638 136 160L137 160L137 113L136 91z"/>
<path style="fill:#f8bba9; stroke:none;" d="M137 91L137 171L138 171L138 116L137 91z"/>
<path style="fill:#f7a7c5; stroke:none;" d="M114 95L115 96L114 95M109 96L110 97L109 96z"/>
<path style="fill:#f8bba9; stroke:none;" d="M249.333 170.667L249.667 171.333L249.333 170.667M138 172L139 173L138 172M248 173L249 174L248 173M139 174L140 175L139 174M247 174L248 175L247 174M141 175L142 176L141 175M142 176L142 177L145 177L142 176M243.667 176.333L244.333 176.667L243.667 176.333z"/>
<path style="fill:#f184a8; stroke:none;" d="M384 461C394.664 454.548 402.469 436.297 409.333 426C423.845 404.232 438.821 382.769 453.333 361C459.701 351.448 469.51 340.933 473 330C446.328 335.173 419.644 340.279 393 345.6C385.784 347.042 370.061 346.898 366.028 354.108C362.094 361.14 367.907 376.527 369.4 384C374.424 409.157 381.966 435.438 384 461z"/>
</svg>
