<?xml version="1.0" standalone="yes"?>
<svg xmlns="http://www.w3.org/2000/svg" width="512" height="512">
<path style="fill: #f1f2f6; stroke:none;" d="M0 0L0 480L1 480C5.01174 450.232 18.3312 419.895 26.5787 391C30.9246 375.774 33.6502 354.506 41.8542 341C51.7644 324.685 71.501 310.499 85 297L176 206C234.863 147.137 292.091 85.8235 353 29.0895C397.066 -11.9559 467.385 -6.69849 499.396 47C505.424 57.1116 510.481 69.0954 511 81L512 81L512 0L0 0z"/>
<path style="fill:#e4502c; stroke:none;" d="M322 60L367 104L454 191C488.963 166.372 516.077 126.886 511.83 83C505.29 15.4221 425.059 -20.5668 369 15.5409C352.28 26.3103 333.444 43.7543 322 60z"/>
<path style="fill:#f8a13c; stroke:none;" d="M321 60L320 62L321 60z"/>
<path style="fill:#e7ccaa; stroke:none;" d="M383 262L384 262L419 227L419 226L362 169L331 139L355 115L364.654 104L357 93L333 69L323 61.1173L311 70L283 98L261 120L253.207 130L261 140L285 164L383 262z"/>
<path style="fill:#f8a13c; stroke:none;" d="M366 103C383.108 127.287 409.974 147.974 431 169C436.762 174.762 452.251 185.257 451 194C456.755 187.704 438.521 174.521 434 170C412.339 148.339 391.019 120.624 366 103z"/>
<path style="fill: #f1f2f6; stroke:none;" d="M331 138L331 139L388 196L419 226L419 227C396.462 242.876 376.531 267.469 357 287L242 402L195 449C187.952 456.048 180.656 466.042 172 471.066C159.053 478.581 139.436 480.562 125 484.576C94.7099 492.997 63.8646 503.619 33 509.539C20.8833 511.863 5.76338 512.01 1 498L0 498L0 512L512 512L512 107L511 107C509.818 134.103 490.002 154.998 472 173C464.944 180.056 458.167 188.247 450 194L453 191C436.15 167.079 409.709 146.709 389 126C384.323 121.323 372.898 105.207 366 105.207C362.188 105.207 358.425 110.576 356 113L331 138z"/>
<path style="fill:#e4502c; stroke:none;" d="M251 130L95 286L56 325L43.2068 340L54 353L85 384L86 384L242 228L281 189L293.793 174L284 162L251 130z"/>
<path style="fill:#f8a13c; stroke:none;" d="M295 174L85 384L85 385L144 443L172 472C197.751 453.861 219.705 425.295 242 403L383 262L383 261L326 204L295 174z"/>
<path style="fill:#e7ccaa; stroke:none;" d="M452 191L453 192L452 191M451 192L452 193L451 192M450 193L451 194L450 193z"/>
<path style="fill:#f8a13c; stroke:none;" d="M41 340L42 341L41 340z"/>
<path style="fill:#e7ccaa; stroke:none;" d="M41 341C34.3601 364.398 27.0967 387.613 20.4213 411C18.5979 417.388 11.7727 430.579 14.2122 437C15.8364 441.275 20.8479 444.848 24 448L48 472C54.5275 478.527 66.6104 496.163 76 497.508C84.4604 498.721 97.8071 492.341 106 490C127.842 483.759 149.861 477.075 172 472C166.527 460.263 152.12 450.12 143 441L77 375C66.5105 364.494 54.4861 347.289 41 341z"/>
<path style="fill:#565553; stroke:none;" d="M13 437C7.32381 451.825 0.405229 471.057 0.0146605 487C-0.167956 494.454 0.375648 502.35 7.09336 507.03C24.2629 518.993 56.3703 503.003 74 498L44 467L13 437z"/>
<path style="fill:#f8a13c; stroke:none;" d="M5 462L6 463L5 462M4 465L5 466L4 465M3 469L4 470L3 469M2 472L3 473L2 472M1 476L2 477L1 476M0.333333 480.667L0.666667 481.333L0.333333 480.667M0 497L1 498L0 497M72.6667 498.333L73.3333 498.667L72.6667 498.333M68 499L68 500L71 500L68 499M1 500L2 501L1 500M65.6667 500.333L66.3333 500.667L65.6667 500.333M61.6667 501.333L62.3333 501.667L61.6667 501.333M2 502L3 503L2 502M57 502L57 503L60 503L57 502M3 503L4 504L3 503M54.6667 503.333L55.3333 503.667L54.6667 503.333M50.6667 504.333L51.3333 504.667L50.6667 504.333M48 505L49 506L48 505M44 506L45 507L44 506M7 507L8 508L7 507M40 507L41 508L40 507M9 508L10 509L9 508M37 508L38 509L37 508M11 509L12 510L11 509M33 509L34 510L33 509M15.6667 510.333L16.3333 510.667L15.6667 510.333M26 510L27 511L26 510z"/>
</svg>
