<?xml version="1.0" standalone="yes"?>
<svg xmlns="http://www.w3.org/2000/svg" width="512" height="512">
<path style="fill: #f1f2f6; stroke:none;" d="M0 0L0 79L1 79C4.33696 54.2393 28.1734 32.8296 53 31.0895C79.3933 29.2396 106.536 31 133 31L292 31C322.015 31 363.911 23.2074 390 40.7492C418.125 59.6602 417 88.883 417 119L417 290C365.214 290.143 321.079 332.674 321.079 385C321.079 412.969 333.553 437.54 353 457L81 457C48.1169 457 4.63537 449.639 1 408L0 408L0 512L512 512L512 0L0 0z"/>
<path style="fill:#4b576f; stroke:none;" d="M0 326C10.0044 318.953 18.3533 308.647 27 300L77 250L97 230C98.9972 228.011 101.859 224.056 105 224.056C111.549 224.056 122.55 239.55 127 244L173 290C177.735 294.735 185.368 306.001 192 307.654C195.553 308.54 198.828 304.213 200.961 301.999C208.332 294.346 215.474 286.526 223 279L285 217C295.553 206.447 308.403 196.205 317 184L318 184L367 234L417 283L417 127C417 101.719 420.824 74.3138 404.32 53C382.832 25.2503 346.914 31 316 31L101 31C69.3471 31 34.481 25.3835 12.0957 53.0008C-5.90693 75.2109 0 108.341 0 135L0 326z"/>
<path style="fill:#fdcc04; stroke:none;" d="M182 135.518C134.801 145.588 152.093 217.604 199 207.714C245.704 197.867 228.416 125.615 182 135.518z"/>
<path style="fill:#01b595; stroke:none;" d="M317 184L225 276C217.45 283.55 209.991 291.087 202.83 299C200.598 301.467 196.708 306.944 193 306.944C187.31 306.944 178.792 294.792 175 291L126 242C121.921 237.921 109.292 220.758 103 223.752C94.201 227.938 85.8716 240.128 79 247L26 300C18.6338 307.366 4.24347 317.127 0.603395 327C-4.21718 340.075 0 362.042 0 376C0 406.308 2.84809 436.81 35 450.571C48.9524 456.542 64.1346 456 79 456L136 456L352 456L352 455C344.11 448.474 337.829 439.904 332.862 431C297.983 368.479 346.161 290 417 290C416.851 277.42 401.313 267.313 393 259L344 210C335.353 201.353 327.004 191.047 317 184z"/>
<path style="fill:#98e1d4; stroke:none;" d="M404 290L404 291L409 291L404 290M398 291L398 292L401 292L398 291M394 292L395 293L394 292M390.667 293.333L391.333 293.667L390.667 293.333M387 294L388 295L387 294M384 295L385 296L384 295M381 296L382 297L381 296M379 297L380 298L379 297M376.667 298.333L377.333 298.667L376.667 298.333M374 299L375 300L374 299M372 300L373 301L372 300M370 301L371 302L370 301M369 302L370 303L369 302M367 303L368 304L367 303M365 304L366 305L365 304M364 305L365 306L364 305M362 306L363 307L362 306M361 307L362 308L361 307M358 309L359 310L358 309M357 310L358 311L357 310M353 313L354 314L353 313M352 314L353 315L352 314M351 315L352 316L351 315M350 316L351 317L350 316M349 317L350 318L349 317M348 318L349 319L348 318M347 319L348 320L347 319M346 320L347 321L346 320M345 321L346 322L345 321M344 322L345 323L344 322M341 326L342 327L341 326M340 327L341 328L340 327M411 327L412 328L411 327z"/>
<path style="fill:#01b595; stroke:none;" d="M403 374C403 392.71 398.884 416.877 403.419 434.999C405.615 443.773 416.438 447.256 423.907 442.721C431.024 438.401 430 430.17 430 423L430 374C437.962 381.961 460.321 395.164 460.941 373C461.227 362.798 450.512 355.512 444 349C437.136 342.136 428.27 328.425 418 327.192C403.927 325.503 390.753 347.233 382 356C378.001 360.006 373.116 364.09 372.215 370C370.806 379.238 378.378 387.844 388 385.438C394.183 383.892 398.684 378.313 403 374z"/>
<path style="fill:#98e1d4; stroke:none;" d="M420 327L421 328L420 327M409 328L410 329L409 328M424 329L425 330L424 329M338 330L339 331L338 330M406 330L407 331L406 330M337 331L338 332L337 331M405 331L406 332L405 331M336 333L337 334L336 333M428 333L429 334L428 333M429 334L430 335L429 334M430 335L431 336L430 335M334 336L335 337L334 336M431 336L432 337L431 336M432 337L433 338L432 337M333 338L334 339L333 338M433 338L434 339L433 338M434 339L435 340L434 339M435 340L436 341L435 340M436 341L437 342L436 341M331 342L332 343L331 342M437 342L438 343L437 342M438 343L439 344L438 343M330 344L331 345L330 344M393 344L394 345L393 344M439 344L440 345L439 344M392 345L393 346L392 345M440 345L441 346L440 345M329 346L330 347L329 346M391 346L392 347L391 346M441 346L442 347L441 346M390 347L391 348L390 347M442 347L443 348L442 347M328 348L329 349L328 348M389 348L390 349L389 348M443 348L444 349L443 348M388 349L389 350L388 349M444 349L445 350L444 349M327.333 350.667L327.667 351.333L327.333 350.667M387 350L388 351L387 350M445 350L446 351L445 350M386 351L387 352L386 351M446 351L447 352L446 351M385 352L386 353L385 352M447 352L448 353L447 352M326 353L327 354L326 353M384 353L385 354L384 353M448 353L449 354L448 353M383 354L384 355L383 354M449 354L450 355L449 354M382 355L383 356L382 355M450 355L451 356L450 355M325 356L326 357L325 356M381 356L382 357L381 356M451 356L452 357L451 356M380 357L381 358L380 357M452 357L453 358L452 357M379 358L380 359L379 358M453 358L454 359L453 358M324.333 359.667L324.667 360.333L324.333 359.667M378 359L379 360L378 359M454 359L455 360L454 359M377 360L378 361L377 360M455 360L456 361L455 360M376 361L377 362L376 361M456 361L457 362L456 361M375 362L376 363L375 362M457 362L458 363L457 362M323.333 363.667L323.667 364.333L323.333 363.667M374 363L375 364L374 363M458 363L459 364L458 363M373 365L374 366L373 365M459 365L460 366L459 365M372 367L373 368L372 367M460 367L461 368L460 367M322 368L322 371L323 371L322 368M371 369L371 375L372 375L371 369M461 369L461 375L462 375L461 369M321 374L321 381L322 381L321 374M402 374L402 433L403 433L403 393L402 374M430 374L430 433L431 433L431 393L430 374M372 377L373 378L372 377M460 377L461 378L460 377M373 379L374 380L373 379M459 379L460 380L459 379M392 383L393 384L392 383M378 384L379 385L378 384M391 384L392 385L391 384M441 384L442 385L441 384M454 384L455 385L454 384M381 385L382 386L381 385M388 385L389 386L388 385M444 385L445 386L444 385M451 385L452 386L451 385M321 389L321 396L322 396L321 389M322 400L322 403L323 403L322 400z"/>
<path style="fill:#4b576f; stroke:none;" d="M0 405L0 408L1 408L0 405z"/>
<path style="fill:#98e1d4; stroke:none;" d="M323.333 406.667L323.667 407.333L323.333 406.667z"/>
<path style="fill:#4b576f; stroke:none;" d="M1 410L1 413L2 413L1 410z"/>
<path style="fill:#98e1d4; stroke:none;" d="M324 410L325 411L324 410M325.333 413.667L325.667 414.333L325.333 413.667z"/>
<path style="fill:#4b576f; stroke:none;" d="M2.33333 414.667L2.66667 415.333L2.33333 414.667z"/>
<path style="fill:#98e1d4; stroke:none;" d="M326.333 416.667L326.667 417.333L326.333 416.667z"/>
<path style="fill:#4b576f; stroke:none;" d="M3.33333 417.667L3.66667 418.333L3.33333 417.667M4.33333 419.667L4.66667 420.333L4.33333 419.667z"/>
<path style="fill:#98e1d4; stroke:none;" d="M327 419L328 420L327 419z"/>
<path style="fill:#4b576f; stroke:none;" d="M5.33333 421.667L5.66667 422.333L5.33333 421.667z"/>
<path style="fill:#98e1d4; stroke:none;" d="M328 422L329 423L328 422z"/>
<path style="fill:#4b576f; stroke:none;" d="M6.33333 423.667L6.66667 424.333L6.33333 423.667z"/>
<path style="fill:#98e1d4; stroke:none;" d="M329 424L330 425L329 424z"/>
<path style="fill:#4b576f; stroke:none;" d="M7.33333 425.667L7.66667 426.333L7.33333 425.667z"/>
<path style="fill:#98e1d4; stroke:none;" d="M330 426L331 427L330 426z"/>
<path style="fill:#4b576f; stroke:none;" d="M8.33333 427.667L8.66667 428.333L8.33333 427.667z"/>
<path style="fill:#98e1d4; stroke:none;" d="M331 428L332 429L331 428z"/>
<path style="fill:#4b576f; stroke:none;" d="M9 429L10 430L9 429M10 430L12 433L10 430z"/>
<path style="fill:#98e1d4; stroke:none;" d="M332 430L333 431L332 430M333 432L334 433L333 432z"/>
<path style="fill:#4b576f; stroke:none;" d="M12 433L23 444L12 433z"/>
<path style="fill:#98e1d4; stroke:none;" d="M335 435L336 436L335 435M403 436L404 437L403 436M429 436L430 437L429 436M336 437L337 438L336 437M404 438L405 439L404 438M428 438L429 439L428 438M405 439L406 440L405 439M427 439L428 440L427 439M338 440L339 441L338 440M339 441L340 442L339 441M408 442L409 443L408 442M424 442L425 443L424 442z"/>
<path style="fill:#4b576f; stroke:none;" d="M23 444L29 448L29 447L23 444z"/>
<path style="fill:#98e1d4; stroke:none;" d="M341 444L342 445L341 444M412.667 444.333L413.333 444.667L412.667 444.333M419.667 444.333L420.333 444.667L419.667 444.333M342 445L343 446L342 445M343 446L344 447L343 446z"/>
<path style="fill:#4b576f; stroke:none;" d="M29 448L29 449C56.1624 464.458 97.7954 457 128 457L352 457L352 456L154 456C111.805 456 69.5693 459.598 29 448z"/>
<path style="fill:#98e1d4; stroke:none;" d="M348 452L349 453L348 452M349 453L350 454L349 453M352 456L353 457L352 456z"/>
</svg>
