<?xml version="1.0" standalone="yes"?>
<svg xmlns="http://www.w3.org/2000/svg" width="512" height="512">
<path style="fill:#f1f2f6; stroke:none;" d="M0 0L0 512L189 512L189 511C168.955 504.351 169.057 472.044 189 465.109C195.417 462.878 203.3 464 210 464L250 464C286.911 464 322.328 456.781 352 433.335C418.256 380.98 424.996 283.16 368.83 221C356.109 206.921 339.974 196.45 323 188.258C295.313 174.897 264.996 175 235 175L139 175C157.397 201.117 186.388 223.388 209 246C218.148 255.148 232.912 265.324 231.295 280C229.254 298.516 208.218 308.206 193 297.362C180.108 288.175 169.187 274.187 158 263L88 193C77.0283 182.028 56.0502 168.104 56.0293 151C56.0123 137.105 69.054 127.946 78 119L141 56L179 18C185.239 11.7609 191.277 3.59094 200 1L181 0L141 0L0 0z"/>
<path style="fill:#3498db; stroke:none;" d="M139 175L230 175C260.222 175 289.523 174.823 318 186.452C333.081 192.611 346.733 201.828 359 212.425C433.165 276.495 417.297 396.8 334 444.769C303.951 462.073 271.765 464 238 464C223.172 464 200.813 459.837 187 465.483C169.608 472.592 168.951 503.993 187 510.856C193.28 513.244 201.391 512 208 512L250 512C294.178 512 334.698 504.599 372 479.254C458.52 420.467 482.971 296.206 422.562 210C412.926 196.249 401.729 183.809 389 172.87C319.039 112.743 224.562 127 139 127L185 81L215 51C220.348 45.6521 227.155 40.2945 229.867 33C237.395 12.7571 218.201 -5.91571 198 1.1088C184.738 5.72028 172.745 23.2552 163 33L85 111C74.0022 121.998 56.0022 133.958 56.0077 151C56.0132 168.01 74.0498 180.05 85 191L163 269C173.318 279.318 185.49 297.087 200 301.211C219.83 306.847 236.797 288.191 229.895 269C227.25 261.646 220.37 256.37 215 251L185 221L139 175z"/>
<path style="fill:#f1f2f6; stroke:none;" d="M214 0L214 1C230.479 5.84903 236.579 25.7145 225.671 39C199.865 70.4298 162.41 93.7674 139 127L233 127C255.842 127 278.452 126.074 301 130.31C345.267 138.627 386.541 164.843 414.335 200C490.18 295.937 456.44 444.705 343 494.86C324.397 503.085 303.586 510.575 283 511L283 512L512 512L512 0L214 0z"/>

</svg>

