<svg version="1.1" id="Layer_1" xmlns="http://www.w3.org/2000/svg" xmlns:xlink="http://www.w3.org/1999/xlink" x="0px" y="0px"
	 width="100%" viewBox="0 0 512 512" enable-background="new 0 0 512 512" xml:space="preserve">
<path fill="#FFFFFF" opacity="1.000000" stroke="none" 
	d="
M13.000000,513.000000 
	C9.001842,513.000000 5.003685,513.000000 1.004145,513.000000 
	C1.002763,342.413788 1.002763,171.827560 1.002763,1.000000 
	C140.355255,1.000000 279.710632,1.000000 419.432648,1.354823 
	C413.502533,3.869124 408.542328,7.829163 403.865326,12.530567 
	C368.141052,48.441292 332.278625,84.214569 296.465363,120.036789 
	C295.204926,121.297539 294.008972,122.622780 292.703918,124.001457 
	C293.352509,124.736267 293.754822,125.244919 294.210236,125.700478 
	C323.895844,155.395340 353.585754,185.085892 383.275360,214.776779 
	C383.628082,215.129501 383.951630,215.741638 384.340363,215.786560 
	C385.723175,215.946365 387.394653,216.408432 388.461700,215.834869 
	C390.008209,215.003571 391.154694,213.400116 392.418335,212.075058 
	C402.119537,201.902390 411.807770,191.717346 421.817657,181.202484 
	C427.115356,186.540100 431.764191,191.509674 436.721069,196.150177 
	C443.913422,202.883514 443.837402,208.806473 436.581451,216.033157 
	C387.941254,264.476990 339.403320,313.023804 290.938141,361.642792 
	C279.845276,372.770844 285.360992,390.453674 296.802887,395.869965 
	C305.420929,399.949463 316.239258,399.401733 325.316437,390.283508 
	C372.926208,342.458435 420.642731,294.739136 468.458466,247.119919 
	C481.494873,234.137054 487.886536,219.193390 486.184601,200.472275 
	C485.006409,187.512009 479.906982,176.895203 471.182251,167.750671 
	C465.472778,161.766510 459.430817,156.099564 453.392212,150.147049 
	C469.065582,134.463074 484.083496,119.108559 499.472107,104.135025 
	C512.767273,91.198479 511.696655,66.337692 499.485626,54.824638 
	C487.124969,43.170502 475.283173,30.958811 463.387604,18.821308 
	C456.218170,11.506038 449.218903,4.085690 439.000000,1.000000 
	C463.656708,1.000000 488.313385,1.000000 512.977539,0.999999 
	C512.985046,171.587784 512.985046,342.175568 512.985046,513.000000 
	C350.311401,513.000000 187.622681,513.000000 24.576044,512.636963 
	C29.375095,510.528412 34.512283,508.721619 39.692467,507.047852 
	C62.574802,499.654419 85.406578,492.095184 108.384506,485.010620 
	C121.129120,481.081146 131.709793,474.580170 141.007034,464.778625 
	C163.434799,441.134308 186.508194,418.096954 209.523010,395.016052 
	C259.762970,344.631775 310.123474,294.367706 360.470825,244.090668 
	C361.739502,242.823761 363.428070,241.977371 364.508453,241.222839 
	C363.847321,239.684250 363.794434,239.317291 363.584534,239.107193 
	C333.435242,208.932007 303.261719,178.780975 273.143402,148.574890 
	C271.146423,146.572113 269.716553,146.575424 267.822510,148.624802 
	C262.097900,154.818878 256.390564,161.037811 250.448578,167.020676 
	C192.487915,225.380051 134.485626,283.698059 76.482521,342.015228 
	C65.671783,352.884521 55.217239,364.157227 43.826672,374.384308 
	C35.443203,381.911377 31.585808,391.220520 28.992958,401.579163 
	C21.732840,430.583923 14.447803,459.582458 7.120532,488.570312 
	C4.791356,497.784943 2.110247,507.003448 13.000000,513.000000 
z"/>
<path fill="" opacity="1.000000" stroke="none" 
	d="
M13.458069,513.000000 
	C2.110247,507.003448 4.791356,497.784943 7.120532,488.570312 
	C14.447803,459.582458 21.732840,430.583923 28.992958,401.579163 
	C31.585808,391.220520 35.443203,381.911377 43.826672,374.384308 
	C55.217239,364.157227 65.671783,352.884521 76.482521,342.015228 
	C134.485626,283.698059 192.487915,225.380051 250.448578,167.020676 
	C256.390564,161.037811 262.097900,154.818878 267.822510,148.624802 
	C269.716553,146.575424 271.146423,146.572113 273.143402,148.574890 
	C303.261719,178.780975 333.435242,208.932007 363.584534,239.107193 
	C363.794434,239.317291 363.847321,239.684250 364.508453,241.222839 
	C363.428070,241.977371 361.739502,242.823761 360.470825,244.090668 
	C310.123474,294.367706 259.762970,344.631775 209.523010,395.016052 
	C186.508194,418.096954 163.434799,441.134308 141.007034,464.778625 
	C131.709793,474.580170 121.129120,481.081146 108.384506,485.010620 
	C85.406578,492.095184 62.574802,499.654419 39.692467,507.047852 
	C34.512283,508.721619 29.375095,510.528412 24.109058,512.636963 
	C20.638712,513.000000 17.277426,513.000000 13.458069,513.000000 
z"/>
<path fill="" opacity="1.000000" stroke="none" 
	d="
M438.531738,1.000000 
	C449.218903,4.085690 456.218170,11.506038 463.387604,18.821308 
	C475.283173,30.958811 487.124969,43.170502 499.485626,54.824638 
	C511.696655,66.337692 512.767273,91.198479 499.472107,104.135025 
	C484.083496,119.108559 469.065582,134.463074 453.392212,150.147049 
	C459.430817,156.099564 465.472778,161.766510 471.182251,167.750671 
	C479.906982,176.895203 485.006409,187.512009 486.184601,200.472275 
	C487.886536,219.193390 481.494873,234.137054 468.458466,247.119919 
	C420.642731,294.739136 372.926208,342.458435 325.316437,390.283508 
	C316.239258,399.401733 305.420929,399.949463 296.802887,395.869965 
	C285.360992,390.453674 279.845276,372.770844 290.938141,361.642792 
	C339.403320,313.023804 387.941254,264.476990 436.581451,216.033157 
	C443.837402,208.806473 443.913422,202.883514 436.721069,196.150177 
	C431.764191,191.509674 427.115356,186.540100 421.817657,181.202484 
	C411.807770,191.717346 402.119537,201.902390 392.418335,212.075058 
	C391.154694,213.400116 390.008209,215.003571 388.461700,215.834869 
	C387.394653,216.408432 385.723175,215.946365 384.340363,215.786560 
	C383.951630,215.741638 383.628082,215.129501 383.275360,214.776779 
	C353.585754,185.085892 323.895844,155.395340 294.210236,125.700478 
	C293.754822,125.244919 293.352509,124.736267 292.703918,124.001457 
	C294.008972,122.622780 295.204926,121.297539 296.465363,120.036789 
	C332.278625,84.214569 368.141052,48.441292 403.865326,12.530567 
	C408.542328,7.829163 413.502533,3.869124 419.899628,1.354823 
	C426.021149,1.000000 432.042297,1.000000 438.531738,1.000000 
z"/>
</svg>